<svg width="140" height="64" viewBox="0 0 140 64" fill="none" xmlns="http://www.w3.org/2000/svg">
<path d="M18.6825 29.1793C21.2519 28.5574 23.8258 28.816 26.2098 29.715C26.1172 28.993 26.1218 28.3035 26.2376 27.7119C26.7126 25.292 28.6772 23.5638 30.7878 22.5133C32.4768 21.6748 34.3047 21.3604 35.5813 19.8581C36.3528 18.9497 36.7513 18.0507 36.6378 16.9723C35.4075 16.3574 34.4553 15.3209 34.1426 13.9165C33.7116 11.981 33.1672 10.4484 31.4111 9.34903C29.5553 8.18679 27.1365 7.76056 24.968 7.89099C24.7155 7.9073 24.4676 7.83975 24.2429 7.71631C23.7494 8.28695 23.2953 8.92746 22.9153 9.64483C22.9061 9.66347 22.8945 9.6821 22.8829 9.6984C21.4303 11.8738 18.8609 15.0927 16.3819 18.0763C13.3747 21.6981 14.5934 27.1227 18.6825 29.1793Z" fill="#EDE0CE"/>
<path d="M76.0886 25.3947V27.2324H78.6394V30.1695H76.0886V37.653C76.0886 38.2073 76.1952 38.6056 76.406 38.8455C76.6168 39.0854 77.0223 39.2065 77.62 39.2065C78.0602 39.2065 78.4518 39.1739 78.7923 39.1087V42.1436C78.0116 42.3835 77.2076 42.5046 76.3805 42.5046C73.5865 42.5046 72.1616 41.0861 72.106 38.2492V30.1695H69.9282V27.2324H72.106V23.5454H74.2514C75.2685 23.5454 76.0909 24.3746 76.0909 25.3947H76.0886Z" fill="#2A7193"/>
<path d="M99.8544 27.2298L99.9796 28.9068C101.036 27.6048 102.465 26.9526 104.266 26.9526C106.186 26.9526 107.505 27.7143 108.223 29.2398C109.27 27.7143 110.764 26.9526 112.703 26.9526C114.321 26.9526 115.525 27.4255 116.315 28.3734C117.105 29.3214 117.502 30.7468 117.502 32.6497V40.3754C117.502 41.3979 116.677 42.2248 115.662 42.2248H113.505V32.6613C113.505 31.8112 113.341 31.1893 113.009 30.798C112.678 30.4044 112.094 30.2088 111.258 30.2088C110.062 30.2088 109.235 30.7817 108.776 31.9277L108.788 40.3731C108.788 41.3956 107.966 42.2248 106.949 42.2248H104.808V32.6753C104.808 31.8066 104.639 31.1777 104.298 30.7911C103.958 30.4021 103.378 30.2088 102.56 30.2088C101.43 30.2088 100.612 30.6793 100.107 31.6226V40.3754C100.107 41.3979 99.2822 42.2248 98.2674 42.2248H96.1221V27.2298H99.8591H99.8544Z" fill="#2A7193"/>
<path d="M122.925 42.225H120.768V27.23H124.767V40.3756C124.767 41.3981 123.942 42.225 122.927 42.225H122.925Z" fill="#2A7193"/>
<path d="M136.126 38.0812C136.126 37.5921 135.885 37.2055 135.403 36.9237C134.921 36.6418 134.145 36.3903 133.08 36.169C129.533 35.4214 127.758 33.9051 127.758 31.6226C127.758 30.2926 128.307 29.1816 129.405 28.2896C130.503 27.3975 131.94 26.9526 133.712 26.9526C135.605 26.9526 137.12 27.3998 138.255 28.2965C139.391 29.1933 139.958 30.3578 139.958 31.7879H135.973C135.973 31.215 135.79 30.7421 135.422 30.3672C135.054 29.9922 134.479 29.8058 133.698 29.8058C133.026 29.8058 132.507 29.9572 132.141 30.2623C131.773 30.5675 131.59 30.9564 131.59 31.4269C131.59 31.8694 131.798 32.2281 132.218 32.5006C132.635 32.7731 133.341 33.0084 134.333 33.2064C135.325 33.4043 136.161 33.6279 136.842 33.8795C138.946 34.6551 140 35.999 140 37.9112C140 39.2784 139.416 40.3848 138.248 41.2302C137.081 42.0757 135.575 42.4973 133.726 42.4973C132.475 42.4973 131.368 42.2737 130.397 41.8242C129.426 41.377 128.666 40.7621 128.115 39.9818C127.563 39.2016 127.288 38.3584 127.288 37.4524H131.064C131.101 38.1651 131.363 38.7101 131.849 39.0874C132.336 39.4671 132.989 39.6557 133.807 39.6557C134.569 39.6557 135.146 39.509 135.538 39.2202C135.929 38.9291 136.124 38.5471 136.124 38.0766L136.126 38.0812Z" fill="#2A7193"/>
<path d="M67.1964 27.2065C66.0704 27.2065 65.0116 27.5443 64.1104 28.1149L64.0965 27.2298H60.334V42.2248H62.4793C63.4964 42.2248 64.3189 41.3956 64.3189 40.3755L64.1938 32.9176H64.1984C64.1984 31.3547 65.5723 30.0341 67.1987 30.0341H68.1208V27.2065H67.1987H67.1964Z" fill="#2A7193"/>
<path d="M57.2713 38.7614V32.2607C57.2713 30.5791 56.7315 29.2748 55.6519 28.3455C54.5722 27.4161 53.1127 26.9526 51.2754 26.9526C50.0614 26.9526 48.9679 27.1623 47.9948 27.5838C47.0195 28.0054 46.2665 28.583 45.7336 29.3237C45.2008 30.062 44.9343 30.8679 44.9343 31.7344H48.9192C48.9192 31.1707 49.1092 30.7282 49.4915 30.4044C49.8738 30.0807 50.3997 29.92 51.0692 29.92C51.8315 29.92 52.3898 30.1272 52.7443 30.5442C53.0988 30.9611 53.2748 31.5131 53.2748 32.2072V33.0666H51.4422C49.2274 33.0759 47.5338 33.5045 46.3615 34.3546C45.1892 35.2048 44.603 36.4252 44.603 38.0137C44.603 39.3064 45.0826 40.3801 46.0441 41.2279C47.0032 42.078 48.2149 42.5019 49.6768 42.5019C51.2198 42.5019 52.4755 41.9616 53.4393 40.8809C53.5227 41.4166 53.6548 41.8638 53.8401 42.2248H57.8644V41.9895C57.4775 41.2605 57.2806 40.1845 57.2713 38.7614ZM53.2748 37.5619C53.2748 38.6402 52.4037 39.516 51.331 39.516H49.7533C48.8451 39.516 48.1084 38.7753 48.1084 37.8623C48.1084 36.7839 48.9795 35.9082 50.0522 35.9082H53.2748V37.5619Z" fill="#2A7193"/>
<path d="M87.5681 42.5023C85.381 42.5023 83.5994 41.8269 82.2255 40.4783C80.8517 39.1297 80.1636 37.3316 80.1636 35.0864V34.6974C80.1636 33.1904 80.4532 31.8442 81.0324 30.6587C81.6116 29.4708 82.4317 28.5578 83.4928 27.9149C84.5539 27.2721 85.7656 26.9507 87.1256 26.9507C89.1667 26.9507 90.7722 27.5982 91.9445 28.8909C93.1168 30.1835 93.703 32.0189 93.703 34.3923C93.703 35.296 92.9755 36.0273 92.0766 36.0273H84.2041C84.3338 37.0079 84.7207 37.7928 85.3694 38.3844C86.0181 38.976 86.8383 39.2718 87.8299 39.2718C89.3636 39.2718 90.5637 38.7128 91.4279 37.5948L93.3856 39.7982C92.7879 40.6483 91.9793 41.3121 90.9599 41.7873C89.9405 42.2624 88.8099 42.5 87.5681 42.5V42.5023ZM87.1117 30.1835C86.3216 30.1835 85.6799 30.4537 85.1887 30.9917C84.6976 31.5298 84.3825 32.3007 84.2435 33.3022H89.7853V32.9808C89.7667 32.0911 89.5281 31.4017 89.0694 30.9125C88.6107 30.4258 87.9573 30.1812 87.1117 30.1812V30.1835Z" fill="#2A7193"/>
<path d="M122.767 25.5552C123.872 25.5552 124.767 24.6553 124.767 23.5452C124.767 22.4351 123.872 21.5352 122.767 21.5352C121.663 21.5352 120.768 22.4351 120.768 23.5452C120.768 24.6553 121.663 25.5552 122.767 25.5552Z" fill="#2A7193"/>
<path d="M28.2672 53.4024C30.6976 53.9451 32.4838 52.0865 33.4777 50.0625C34.6361 47.71 34.6408 45.2295 33.9272 42.742C33.1534 40.0332 31.5872 37.3663 29.4697 35.3633C29.1337 35.7429 28.8024 36.1249 28.4757 36.5115C29.0457 37.0659 29.2797 38.0185 28.6055 38.7871C26.4833 41.2024 24.2823 43.9601 24.1665 47.3327C24.0761 49.946 25.5658 52.8015 28.2649 53.4024H28.2672Z" fill="#EDE0CE"/>
<path d="M31.9554 25.4505C34.2329 24.2021 36.4083 23.8317 38.1228 21.6913C39.5152 19.9514 40.15 18.1254 39.6449 15.901C39.4642 15.0998 39.17 14.7109 38.4286 14.3126C38.0649 14.1169 37.6177 14.0331 37.3536 13.6674C36.9088 13.0455 36.9644 11.8553 36.6933 11.117C36.3736 10.2506 35.9427 9.46564 35.3727 8.73895C34.4159 7.51848 33.1532 6.61012 31.7446 5.98358C30.1599 5.28018 28.3737 4.84696 26.6036 4.74215L26.7449 1.5722C26.7913 0.542722 25.707 -0.211918 24.7618 0.0536036C22.7438 0.617254 20.807 1.70496 19.1829 3.01394C16.5093 5.16839 14.8898 8.48275 12.6727 11.0937C9.35267 15.0067 5.75931 18.7123 2.04083 22.2433C0.571976 23.6384 2.79148 25.8651 4.25802 24.4723C7.75176 21.1509 11.1297 17.6735 14.2852 14.0261C17.2646 10.586 19.4655 6.08374 23.5037 3.93161C23.469 4.72585 23.4342 5.52008 23.3972 6.31432C23.3601 7.12952 24.1455 7.94006 24.9656 7.89115C27.1342 7.76071 29.5552 8.18927 31.4087 9.34918C33.1648 10.4485 33.7093 11.9811 34.1402 13.9166C34.453 15.3211 35.4052 16.3576 36.6354 16.9724C36.7466 18.0508 36.3504 18.9499 35.5789 19.8582C34.3024 21.3605 32.4744 21.6726 30.7855 22.5135C28.6725 23.5639 26.7102 25.2921 26.2352 27.7121C26.1194 28.3037 26.1125 28.9954 26.2074 29.7151C23.1655 28.5669 19.8154 28.4551 16.5603 29.8968C15.0451 30.5676 13.7778 31.5715 12.6379 32.771C11.4865 33.9821 10.4601 35.4728 9.00515 36.3415C7.0266 37.5224 4.18619 37.2615 1.96438 37.1824C1.28787 37.1591 0.622946 37.6878 0.453819 38.3399C-0.586428 42.3181 0.00204118 47.4282 3.79002 49.7294C5.36313 50.6844 7.19573 50.7938 8.90321 51.3761C10.9374 52.0679 12.8858 53.0414 14.6234 54.3178C17.7951 56.6516 20.0193 59.9566 22.0812 63.2617C23.1516 64.9759 25.8646 63.3968 24.7872 61.6709C20.756 55.2099 15.6637 49.5105 7.91394 47.8102C5.24498 47.2256 3.56066 46.0377 3.21314 43.1612C3.09961 42.2156 3.11351 41.2816 3.24094 40.3709C6.2273 40.4268 9.31097 40.2149 11.7042 38.2538C13.5438 36.7468 14.8018 34.5621 16.836 33.2927C18.8029 32.0629 21.2634 31.7578 23.5153 32.1794C25.2437 32.5031 26.833 33.2624 28.237 34.3082L29.2564 35.1513C31.4828 37.1754 33.1254 39.9401 33.927 42.7397C34.6383 45.2272 34.6337 47.7077 33.4776 50.0601C32.4814 52.0842 30.6974 53.9428 28.2671 53.4001C25.568 52.7992 24.0783 49.9437 24.1687 47.3304C24.2845 43.9578 26.4878 41.2001 28.6077 38.7848C29.9375 37.2685 27.7296 35.0326 26.3905 36.5558C22.3175 41.1931 18.4531 48.1572 23.2442 53.7961C24.9378 55.7898 27.5674 56.9637 30.1784 56.5654C33.0003 56.1345 35.104 53.9195 36.2971 51.4204C39.1955 45.353 36.7281 38.0791 31.9786 33.4557C31.1121 32.552 30.3568 31.7625 30.1414 31.441C29.5969 30.6235 29.1475 29.5987 29.2587 28.5925C29.4255 27.0925 30.7275 26.119 31.9508 25.4505H31.9554Z" fill="#2A7193"/>
</svg>
